<?xml version="1.0" encoding="UTF-8" standalone="no"?>
<svg width="512" height="512" viewBox="0 0 512 512" fill="none" xmlns="http://www.w3.org/2000/svg">
  <rect width="512" height="512" fill="#000000"/>
  <g filter="url(#filter0_d_1_2)">
    <path d="M350 350C367.673 350 382 335.673 382 318V159C382 141.327 367.673 127 350 127H275V159C275 167.837 267.837 175 259 175H229C220.163 175 213 167.837 213 159V127H162C144.327 127 130 141.327 130 159V318C130 335.673 144.327 350 162 350H350Z" stroke="#FFE600" stroke-width="16" stroke-linejoin="round"/>
    <path d="M244 255H308" stroke="#FFE600" stroke-width="16" stroke-linecap="round" stroke-linejoin="round"/>
    <ellipse cx="180" cy="255" rx="16" ry="16" fill="#FFE600"/>
    <path d="M244 319H308" stroke="#FFE600" stroke-width="16" stroke-linecap="round" stroke-linejoin="round"/>
    <ellipse cx="180" cy="319" rx="16" ry="16" fill="#FFE600"/>
    <path d="M244 191H308" stroke="#FFE600" stroke-width="16" stroke-linecap="round" stroke-linejoin="round"/>
    <ellipse cx="180" cy="191" rx="16" ry="16" fill="#FFE600"/>
  </g>
  <defs>
    <filter id="filter0_d_1_2" x="114" y="115" width="284" height="257" filterUnits="userSpaceOnUse" color-interpolation-filters="sRGB">
      <feFlood flood-opacity="0" result="BackgroundImageFix"/>
      <feColorMatrix in="SourceAlpha" type="matrix" values="0 0 0 0 0 0 0 0 0 0 0 0 0 0 0 0 0 0 127 0" result="hardAlpha"/>
      <feOffset dy="4"/>
      <feGaussianBlur stdDeviation="4"/>
      <feComposite in2="hardAlpha" operator="out"/>
      <feColorMatrix type="matrix" values="0 0 0 0 1 0 0 0 0 0.9 0 0 0 0 0 0 0 0 1 0"/>
      <feBlend mode="normal" in2="BackgroundImageFix" result="effect1_dropShadow_1_2"/>
      <feBlend mode="normal" in="SourceGraphic" in2="effect1_dropShadow_1_2" result="shape"/>
    </filter>
  </defs>
</svg>